<svg width="254" height="254" viewBox="0 0 254 254" fill="none" xmlns="http://www.w3.org/2000/svg">
<g clip-path="url(#clip0_231_5)">
<path d="M56.7822 1.64258H243.117C248.259 1.64258 252.26 5.24882 252.26 9.4502V171.246C252.196 175.408 248.245 179.069 243.044 179.069H56.7822C51.64 179.069 47.6397 175.463 47.6396 171.262V9.4502L47.6514 9.0625C47.8874 5.07871 51.7389 1.64258 56.7822 1.64258Z" stroke="#777777" stroke-width="2"/>
<path d="M31.9193 125.691C31.47 123.839 31.0872 121.905 30.7226 120.023C30.4429 118.113 30.1631 116.202 30.0712 114.286C29.9792 112.369 29.9721 110.423 30.068 108.501C30.2669 106.602 30.5506 104.674 31.198 102.975C31.2282 102.788 31.2402 102.547 31.2522 102.307C31.1784 100.443 28.9179 99.3933 26.0948 100.013L25.8222 100.048C25.4647 100.113 25.2951 100.171 25.0407 100.259C24.7862 100.347 24.5984 100.353 24.344 100.441C23.92 100.587 23.4777 100.68 23.0537 100.827C22.2056 101.119 21.3757 101.465 20.5276 101.758C18.8679 102.448 17.2929 103.11 15.7362 103.824C12.6227 105.253 9.54563 106.787 6.67458 108.369C3.82174 110.002 0.987113 111.689 -1.62329 113.476C-2.93759 114.342 -4.21548 115.315 -5.52978 116.182C-6.82588 117.101 -8.00076 118.097 -9.21205 118.987C-9.58147 119.292 -9.74487 119.643 -9.46602 119.901C-9.16896 120.212 -8.58729 120.248 -8.03004 119.937L-7.94523 119.908C-6.49151 119.17 -5.14079 118.409 -3.77187 117.7C-2.31815 116.962 -0.949228 116.254 0.456103 115.651C3.29695 114.257 6.21063 113.074 9.14251 111.945C10.9901 111.248 12.9407 110.575 14.8065 109.931C11.8884 114.126 9.55197 118.356 7.84563 122.487C5.50391 128.077 4.08309 133.586 3.29235 138.995C1.79566 149.784 2.80105 160.122 6.09626 169.67C9.37327 179.166 14.9583 187.924 22.8207 195.306C30.768 202.658 40.9744 208.582 53.0883 212.607C53.6216 212.777 54.4212 212.619 54.9239 212.151C55.4265 211.682 55.3293 211.125 54.796 210.955C43.4271 206.614 33.9174 200.509 26.8911 193.075C19.8647 185.64 15.1522 176.935 12.6145 167.657C10.0586 158.326 9.74413 148.339 11.8167 138.119C12.9045 133.021 14.5376 127.852 16.9583 122.766C18.4955 119.52 20.3417 116.345 22.6 113.263C22.9641 114.318 23.31 115.32 23.759 116.346C24.584 118.187 25.3908 119.974 26.3672 121.704C27.3436 123.433 28.3201 125.162 29.4661 126.833C29.6784 127.173 30.2964 127.314 30.9931 127.133C31.5322 126.769 32.0832 126.166 31.9193 125.691Z" fill="#777777"/>
<g clip-path="url(#clip1_231_5)">
<path d="M133.67 21.1514H127.321V26.6647H133.67V21.1514Z" fill="#777777"/>
<path d="M165.414 21.1514H159.065V26.6647H165.414V21.1514Z" fill="#777777"/>
<path d="M178.112 21.1514H171.763V26.6647H178.112V21.1514Z" fill="#777777"/>
<path d="M127.321 26.6641H120.972V32.1774H127.321V26.6641Z" fill="#777777"/>
<path d="M133.67 26.6641H127.321V32.1774H133.67V26.6641Z" fill="#777777"/>
<path d="M146.368 26.6641H140.019V32.1774H146.368V26.6641Z" fill="#777777"/>
<path d="M152.717 26.6641H146.368V32.1774H152.717V26.6641Z" fill="#777777"/>
<path d="M159.066 26.6641H152.717V32.1774H159.066V26.6641Z" fill="#777777"/>
<path d="M165.414 26.6641H159.065V32.1774H165.414V26.6641Z" fill="#777777"/>
<path d="M133.67 32.1777H127.321V37.691H133.67V32.1777Z" fill="#777777"/>
<path d="M140.019 32.1777H133.67V37.691H140.019V32.1777Z" fill="#777777"/>
<path d="M146.368 32.1777H140.019V37.691H146.368V32.1777Z" fill="#777777"/>
<path d="M127.321 37.6904H120.972V43.2037H127.321V37.6904Z" fill="#777777"/>
<path d="M133.67 37.6904H127.321V43.2037H133.67V37.6904Z" fill="#777777"/>
<path d="M146.368 37.6904H140.019V43.2037H146.368V37.6904Z" fill="#777777"/>
<path d="M159.066 37.6904H152.717V43.2037H159.066V37.6904Z" fill="#777777"/>
<path d="M171.763 37.6904H165.415V43.2037H171.763V37.6904Z" fill="#777777"/>
<path d="M178.112 37.6904H171.763V43.2037H178.112V37.6904Z" fill="#777777"/>
<path d="M140.019 43.2041H133.67V48.7174H140.019V43.2041Z" fill="#777777"/>
<path d="M152.717 43.2041H146.368V48.7174H152.717V43.2041Z" fill="#777777"/>
<path d="M171.763 43.2041H165.415V48.7174H171.763V43.2041Z" fill="#777777"/>
<path d="M178.112 43.2041H171.763V48.7174H178.112V43.2041Z" fill="#777777"/>
<path d="M127.321 48.7178H120.972V54.2311H127.321V48.7178Z" fill="#777777"/>
<path d="M140.019 48.7178H133.67V54.2311H140.019V48.7178Z" fill="#777777"/>
<path d="M159.066 48.7178H152.717V54.2311H159.066V48.7178Z" fill="#777777"/>
<path d="M165.414 48.7178H159.065V54.2311H165.414V48.7178Z" fill="#777777"/>
<path d="M171.763 48.7178H165.415V54.2311H171.763V48.7178Z" fill="#777777"/>
<path d="M127.321 54.2305H120.972V59.7438H127.321V54.2305Z" fill="#777777"/>
<path d="M140.019 54.2305H133.67V59.7438H140.019V54.2305Z" fill="#777777"/>
<path d="M152.717 54.2305H146.368V59.7438H152.717V54.2305Z" fill="#777777"/>
<path d="M165.414 54.2305H159.065V59.7438H165.414V54.2305Z" fill="#777777"/>
<path d="M178.112 54.2305H171.763V59.7438H178.112V54.2305Z" fill="#777777"/>
<path d="M152.717 59.7441H146.368V65.2574H152.717V59.7441Z" fill="#777777"/>
<path d="M178.112 59.7441H171.763V65.2574H178.112V59.7441Z" fill="#777777"/>
<path d="M76.53 65.2568H70.1812V70.7701H76.53V65.2568Z" fill="#777777"/>
<path d="M82.8787 65.2568H76.5298V70.7701H82.8787V65.2568Z" fill="#777777"/>
<path d="M89.2278 65.2568H82.8789V70.7701H89.2278V65.2568Z" fill="#777777"/>
<path d="M95.5764 65.2568H89.2275V70.7701H95.5764V65.2568Z" fill="#777777"/>
<path d="M101.926 65.2568H95.5767V70.7701H101.926V65.2568Z" fill="#777777"/>
<path d="M114.623 65.2568H108.274V70.7701H114.623V65.2568Z" fill="#777777"/>
<path d="M120.972 65.2568H114.624V70.7701H120.972V65.2568Z" fill="#777777"/>
<path d="M127.321 65.2568H120.972V70.7701H127.321V65.2568Z" fill="#777777"/>
<path d="M133.67 65.2568H127.321V70.7701H133.67V65.2568Z" fill="#777777"/>
<path d="M140.019 65.2568H133.67V70.7701H140.019V65.2568Z" fill="#777777"/>
<path d="M152.717 65.2568H146.368V70.7701H152.717V65.2568Z" fill="#777777"/>
<path d="M159.066 65.2568H152.717V70.7701H159.066V65.2568Z" fill="#777777"/>
<path d="M165.414 65.2568H159.065V70.7701H165.414V65.2568Z" fill="#777777"/>
<path d="M171.763 65.2568H165.415V70.7701H171.763V65.2568Z" fill="#777777"/>
<path d="M184.461 65.2568H178.112V70.7701H184.461V65.2568Z" fill="#777777"/>
<path d="M197.159 65.2568H190.81V70.7701H197.159V65.2568Z" fill="#777777"/>
<path d="M209.857 65.2568H203.508V70.7701H209.857V65.2568Z" fill="#777777"/>
<path d="M222.554 65.2568H216.206V70.7701H222.554V65.2568Z" fill="#777777"/>
<path d="M76.53 70.7705H70.1812V76.2838H76.53V70.7705Z" fill="#777777"/>
<path d="M89.2278 70.7705H82.8789V76.2838H89.2278V70.7705Z" fill="#777777"/>
<path d="M95.5764 70.7705H89.2275V76.2838H95.5764V70.7705Z" fill="#777777"/>
<path d="M101.926 70.7705H95.5767V76.2838H101.926V70.7705Z" fill="#777777"/>
<path d="M127.321 70.7705H120.972V76.2838H127.321V70.7705Z" fill="#777777"/>
<path d="M133.67 70.7705H127.321V76.2838H133.67V70.7705Z" fill="#777777"/>
<path d="M165.414 70.7705H159.065V76.2838H165.414V70.7705Z" fill="#777777"/>
<path d="M171.763 70.7705H165.415V76.2838H171.763V70.7705Z" fill="#777777"/>
<path d="M178.112 70.7705H171.763V76.2838H178.112V70.7705Z" fill="#777777"/>
<path d="M184.461 70.7705H178.112V76.2838H184.461V70.7705Z" fill="#777777"/>
<path d="M197.159 70.7705H190.81V76.2838H197.159V70.7705Z" fill="#777777"/>
<path d="M203.508 70.7705H197.159V76.2838H203.508V70.7705Z" fill="#777777"/>
<path d="M228.904 70.7705H222.555V76.2838H228.904V70.7705Z" fill="#777777"/>
<path d="M82.8787 76.2842H76.5298V81.7975H82.8787V76.2842Z" fill="#777777"/>
<path d="M89.2278 76.2842H82.8789V81.7975H89.2278V76.2842Z" fill="#777777"/>
<path d="M95.5764 76.2842H89.2275V81.7975H95.5764V76.2842Z" fill="#777777"/>
<path d="M114.623 76.2842H108.274V81.7975H114.623V76.2842Z" fill="#777777"/>
<path d="M127.321 76.2842H120.972V81.7975H127.321V76.2842Z" fill="#777777"/>
<path d="M133.67 76.2842H127.321V81.7975H133.67V76.2842Z" fill="#777777"/>
<path d="M146.368 76.2842H140.019V81.7975H146.368V76.2842Z" fill="#777777"/>
<path d="M152.717 76.2842H146.368V81.7975H152.717V76.2842Z" fill="#777777"/>
<path d="M159.066 76.2842H152.717V81.7975H159.066V76.2842Z" fill="#777777"/>
<path d="M171.763 76.2842H165.415V81.7975H171.763V76.2842Z" fill="#777777"/>
<path d="M184.461 76.2842H178.112V81.7975H184.461V76.2842Z" fill="#777777"/>
<path d="M190.81 76.2842H184.461V81.7975H190.81V76.2842Z" fill="#777777"/>
<path d="M203.508 76.2842H197.159V81.7975H203.508V76.2842Z" fill="#777777"/>
<path d="M216.205 76.2842H209.856V81.7975H216.205V76.2842Z" fill="#777777"/>
<path d="M82.8787 81.7969H76.5298V87.3102H82.8787V81.7969Z" fill="#777777"/>
<path d="M101.926 81.7969H95.5767V87.3102H101.926V81.7969Z" fill="#777777"/>
<path d="M120.972 81.7969H114.624V87.3102H120.972V81.7969Z" fill="#777777"/>
<path d="M127.321 81.7969H120.972V87.3102H127.321V81.7969Z" fill="#777777"/>
<path d="M133.67 81.7969H127.321V87.3102H133.67V81.7969Z" fill="#777777"/>
<path d="M140.019 81.7969H133.67V87.3102H140.019V81.7969Z" fill="#777777"/>
<path d="M146.368 81.7969H140.019V87.3102H146.368V81.7969Z" fill="#777777"/>
<path d="M165.414 81.7969H159.065V87.3102H165.414V81.7969Z" fill="#777777"/>
<path d="M178.112 81.7969H171.763V87.3102H178.112V81.7969Z" fill="#777777"/>
<path d="M184.461 81.7969H178.112V87.3102H184.461V81.7969Z" fill="#777777"/>
<path d="M89.2278 87.3105H82.8789V92.8238H89.2278V87.3105Z" fill="#777777"/>
<path d="M95.5764 87.3105H89.2275V92.8238H95.5764V87.3105Z" fill="#777777"/>
<path d="M114.623 87.3105H108.274V92.8238H114.623V87.3105Z" fill="#777777"/>
<path d="M120.972 87.3105H114.624V92.8238H120.972V87.3105Z" fill="#777777"/>
<path d="M133.67 87.3105H127.321V92.8238H133.67V87.3105Z" fill="#777777"/>
<path d="M146.368 87.3105H140.019V92.8238H146.368V87.3105Z" fill="#777777"/>
<path d="M159.066 87.3105H152.717V92.8238H159.066V87.3105Z" fill="#777777"/>
<path d="M171.763 87.3105H165.415V92.8238H171.763V87.3105Z" fill="#777777"/>
<path d="M190.81 87.3105H184.461V92.8238H190.81V87.3105Z" fill="#777777"/>
<path d="M197.159 87.3105H190.81V92.8238H197.159V87.3105Z" fill="#777777"/>
<path d="M203.508 87.3105H197.159V92.8238H203.508V87.3105Z" fill="#777777"/>
<path d="M209.857 87.3105H203.508V92.8238H209.857V87.3105Z" fill="#777777"/>
<path d="M222.554 87.3105H216.206V92.8238H222.554V87.3105Z" fill="#777777"/>
<path d="M228.904 87.3105H222.555V92.8238H228.904V87.3105Z" fill="#777777"/>
<path d="M76.53 92.8242H70.1812V98.3375H76.53V92.8242Z" fill="#777777"/>
<path d="M82.8787 92.8242H76.5298V98.3375H82.8787V92.8242Z" fill="#777777"/>
<path d="M89.2278 92.8242H82.8789V98.3375H89.2278V92.8242Z" fill="#777777"/>
<path d="M120.972 92.8242H114.624V98.3375H120.972V92.8242Z" fill="#777777"/>
<path d="M133.67 92.8242H127.321V98.3375H133.67V92.8242Z" fill="#777777"/>
<path d="M140.019 92.8242H133.67V98.3375H140.019V92.8242Z" fill="#777777"/>
<path d="M152.717 92.8242H146.368V98.3375H152.717V92.8242Z" fill="#777777"/>
<path d="M165.414 92.8242H159.065V98.3375H165.414V92.8242Z" fill="#777777"/>
<path d="M178.112 92.8242H171.763V98.3375H178.112V92.8242Z" fill="#777777"/>
<path d="M184.461 92.8242H178.112V98.3375H184.461V92.8242Z" fill="#777777"/>
<path d="M190.81 92.8242H184.461V98.3375H190.81V92.8242Z" fill="#777777"/>
<path d="M197.159 92.8242H190.81V98.3375H197.159V92.8242Z" fill="#777777"/>
<path d="M203.508 92.8242H197.159V98.3375H203.508V92.8242Z" fill="#777777"/>
<path d="M76.53 98.3369H70.1812V103.85H76.53V98.3369Z" fill="#777777"/>
<path d="M114.623 98.3369H108.274V103.85H114.623V98.3369Z" fill="#777777"/>
<path d="M120.972 98.3369H114.624V103.85H120.972V98.3369Z" fill="#777777"/>
<path d="M127.321 98.3369H120.972V103.85H127.321V98.3369Z" fill="#777777"/>
<path d="M140.019 98.3369H133.67V103.85H140.019V98.3369Z" fill="#777777"/>
<path d="M165.414 98.3369H159.065V103.85H165.414V98.3369Z" fill="#777777"/>
<path d="M184.461 98.3369H178.112V103.85H184.461V98.3369Z" fill="#777777"/>
<path d="M190.81 98.3369H184.461V103.85H190.81V98.3369Z" fill="#777777"/>
<path d="M203.508 98.3369H197.159V103.85H203.508V98.3369Z" fill="#777777"/>
<path d="M216.205 98.3369H209.856V103.85H216.205V98.3369Z" fill="#777777"/>
<path d="M222.554 98.3369H216.206V103.85H222.554V98.3369Z" fill="#777777"/>
<path d="M228.904 98.3369H222.555V103.85H228.904V98.3369Z" fill="#777777"/>
<path d="M76.53 103.851H70.1812V109.364H76.53V103.851Z" fill="#777777"/>
<path d="M101.926 103.851H95.5767V109.364H101.926V103.851Z" fill="#777777"/>
<path d="M108.275 103.851H101.926V109.364H108.275V103.851Z" fill="#777777"/>
<path d="M120.972 103.851H114.624V109.364H120.972V103.851Z" fill="#777777"/>
<path d="M127.321 103.851H120.972V109.364H127.321V103.851Z" fill="#777777"/>
<path d="M140.019 103.851H133.67V109.364H140.019V103.851Z" fill="#777777"/>
<path d="M152.717 103.851H146.368V109.364H152.717V103.851Z" fill="#777777"/>
<path d="M184.461 103.851H178.112V109.364H184.461V103.851Z" fill="#777777"/>
<path d="M222.554 103.851H216.206V109.364H222.554V103.851Z" fill="#777777"/>
<path d="M228.904 103.851H222.555V109.364H228.904V103.851Z" fill="#777777"/>
<path d="M76.53 109.363H70.1812V114.877H76.53V109.363Z" fill="#777777"/>
<path d="M89.2278 109.363H82.8789V114.877H89.2278V109.363Z" fill="#777777"/>
<path d="M95.5764 109.363H89.2275V114.877H95.5764V109.363Z" fill="#777777"/>
<path d="M108.275 109.363H101.926V114.877H108.275V109.363Z" fill="#777777"/>
<path d="M114.623 109.363H108.274V114.877H114.623V109.363Z" fill="#777777"/>
<path d="M120.972 109.363H114.624V114.877H120.972V109.363Z" fill="#777777"/>
<path d="M127.321 109.363H120.972V114.877H127.321V109.363Z" fill="#777777"/>
<path d="M133.67 109.363H127.321V114.877H133.67V109.363Z" fill="#777777"/>
<path d="M152.717 109.363H146.368V114.877H152.717V109.363Z" fill="#777777"/>
<path d="M159.066 109.363H152.717V114.877H159.066V109.363Z" fill="#777777"/>
<path d="M171.763 109.363H165.415V114.877H171.763V109.363Z" fill="#777777"/>
<path d="M178.112 109.363H171.763V114.877H178.112V109.363Z" fill="#777777"/>
<path d="M184.461 109.363H178.112V114.877H184.461V109.363Z" fill="#777777"/>
<path d="M190.81 109.363H184.461V114.877H190.81V109.363Z" fill="#777777"/>
<path d="M197.159 109.363H190.81V114.877H197.159V109.363Z" fill="#777777"/>
<path d="M203.508 109.363H197.159V114.877H203.508V109.363Z" fill="#777777"/>
<path d="M209.857 109.363H203.508V114.877H209.857V109.363Z" fill="#777777"/>
<path d="M228.904 109.363H222.555V114.877H228.904V109.363Z" fill="#777777"/>
<path d="M127.321 114.877H120.972V120.39H127.321V114.877Z" fill="#777777"/>
<path d="M133.67 114.877H127.321V120.39H133.67V114.877Z" fill="#777777"/>
<path d="M140.019 114.877H133.67V120.39H140.019V114.877Z" fill="#777777"/>
<path d="M165.414 114.877H159.065V120.39H165.414V114.877Z" fill="#777777"/>
<path d="M178.112 114.877H171.763V120.39H178.112V114.877Z" fill="#777777"/>
<path d="M203.508 114.877H197.159V120.39H203.508V114.877Z" fill="#777777"/>
<path d="M228.904 114.877H222.555V120.39H228.904V114.877Z" fill="#777777"/>
<path d="M127.321 120.391H120.972V125.904H127.321V120.391Z" fill="#777777"/>
<path d="M133.67 120.391H127.321V125.904H133.67V120.391Z" fill="#777777"/>
<path d="M140.019 120.391H133.67V125.904H140.019V120.391Z" fill="#777777"/>
<path d="M146.368 120.391H140.019V125.904H146.368V120.391Z" fill="#777777"/>
<path d="M152.717 120.391H146.368V125.904H152.717V120.391Z" fill="#777777"/>
<path d="M165.414 120.391H159.065V125.904H165.414V120.391Z" fill="#777777"/>
<path d="M178.112 120.391H171.763V125.904H178.112V120.391Z" fill="#777777"/>
<path d="M190.81 120.391H184.461V125.904H190.81V120.391Z" fill="#777777"/>
<path d="M203.508 120.391H197.159V125.904H203.508V120.391Z" fill="#777777"/>
<path d="M216.205 120.391H209.856V125.904H216.205V120.391Z" fill="#777777"/>
<path d="M222.554 120.391H216.206V125.904H222.554V120.391Z" fill="#777777"/>
<path d="M228.904 120.391H222.555V125.904H228.904V120.391Z" fill="#777777"/>
<path d="M140.019 125.903H133.67V131.417H140.019V125.903Z" fill="#777777"/>
<path d="M146.368 125.903H140.019V131.417H146.368V125.903Z" fill="#777777"/>
<path d="M159.066 125.903H152.717V131.417H159.066V125.903Z" fill="#777777"/>
<path d="M178.112 125.903H171.763V131.417H178.112V125.903Z" fill="#777777"/>
<path d="M203.508 125.903H197.159V131.417H203.508V125.903Z" fill="#777777"/>
<path d="M209.857 125.903H203.508V131.417H209.857V125.903Z" fill="#777777"/>
<path d="M127.321 131.417H120.972V136.93H127.321V131.417Z" fill="#777777"/>
<path d="M133.67 131.417H127.321V136.93H133.67V131.417Z" fill="#777777"/>
<path d="M146.368 131.417H140.019V136.93H146.368V131.417Z" fill="#777777"/>
<path d="M152.717 131.417H146.368V136.93H152.717V131.417Z" fill="#777777"/>
<path d="M178.112 131.417H171.763V136.93H178.112V131.417Z" fill="#777777"/>
<path d="M184.461 131.417H178.112V136.93H184.461V131.417Z" fill="#777777"/>
<path d="M190.81 131.417H184.461V136.93H190.81V131.417Z" fill="#777777"/>
<path d="M197.159 131.417H190.81V136.93H197.159V131.417Z" fill="#777777"/>
<path d="M203.508 131.417H197.159V136.93H203.508V131.417Z" fill="#777777"/>
<path d="M209.857 131.417H203.508V136.93H209.857V131.417Z" fill="#777777"/>
<path d="M127.321 136.93H120.972V142.443H127.321V136.93Z" fill="#777777"/>
<path d="M133.67 136.93H127.321V142.443H133.67V136.93Z" fill="#777777"/>
<path d="M140.019 136.93H133.67V142.443H140.019V136.93Z" fill="#777777"/>
<path d="M152.717 136.93H146.368V142.443H152.717V136.93Z" fill="#777777"/>
<path d="M165.414 136.93H159.065V142.443H165.414V136.93Z" fill="#777777"/>
<path d="M171.763 136.93H165.415V142.443H171.763V136.93Z" fill="#777777"/>
<path d="M178.112 136.93H171.763V142.443H178.112V136.93Z" fill="#777777"/>
<path d="M190.81 136.93H184.461V142.443H190.81V136.93Z" fill="#777777"/>
<path d="M203.508 136.93H197.159V142.443H203.508V136.93Z" fill="#777777"/>
<path d="M222.554 136.93H216.206V142.443H222.554V136.93Z" fill="#777777"/>
<path d="M228.904 136.93H222.555V142.443H228.904V136.93Z" fill="#777777"/>
<path d="M127.321 142.443H120.972V147.957H127.321V142.443Z" fill="#777777"/>
<path d="M152.717 142.443H146.368V147.957H152.717V142.443Z" fill="#777777"/>
<path d="M165.414 142.443H159.065V147.957H165.414V142.443Z" fill="#777777"/>
<path d="M203.508 142.443H197.159V147.957H203.508V142.443Z" fill="#777777"/>
<path d="M216.205 142.443H209.856V147.957H216.205V142.443Z" fill="#777777"/>
<path d="M228.904 142.443H222.555V147.957H228.904V142.443Z" fill="#777777"/>
<path d="M127.321 147.957H120.972V153.47H127.321V147.957Z" fill="#777777"/>
<path d="M133.67 147.957H127.321V153.47H133.67V147.957Z" fill="#777777"/>
<path d="M140.019 147.957H133.67V153.47H140.019V147.957Z" fill="#777777"/>
<path d="M152.717 147.957H146.368V153.47H152.717V147.957Z" fill="#777777"/>
<path d="M159.066 147.957H152.717V153.47H159.066V147.957Z" fill="#777777"/>
<path d="M178.112 147.957H171.763V153.47H178.112V147.957Z" fill="#777777"/>
<path d="M184.461 147.957H178.112V153.47H184.461V147.957Z" fill="#777777"/>
<path d="M190.81 147.957H184.461V153.47H190.81V147.957Z" fill="#777777"/>
<path d="M197.159 147.957H190.81V153.47H197.159V147.957Z" fill="#777777"/>
<path d="M203.508 147.957H197.159V153.47H203.508V147.957Z" fill="#777777"/>
<path d="M209.857 147.957H203.508V153.47H209.857V147.957Z" fill="#777777"/>
<path d="M222.554 147.957H216.206V153.47H222.554V147.957Z" fill="#777777"/>
<path d="M127.321 153.47H120.972V158.983H127.321V153.47Z" fill="#777777"/>
<path d="M140.019 153.47H133.67V158.983H140.019V153.47Z" fill="#777777"/>
<path d="M159.066 153.47H152.717V158.983H159.066V153.47Z" fill="#777777"/>
<path d="M171.763 153.47H165.415V158.983H171.763V153.47Z" fill="#777777"/>
<path d="M216.205 153.47H209.856V158.983H216.205V153.47Z" fill="#777777"/>
<path d="M222.554 153.47H216.206V158.983H222.554V153.47Z" fill="#777777"/>
<path d="M228.904 153.47H222.555V158.983H228.904V153.47Z" fill="#777777"/>
<g clip-path="url(#clip2_231_5)">
<path d="M71.5276 21.1465C70.7848 21.1465 70.1753 21.6758 70.1753 22.3208V26.6653V32.1786V37.6919V43.2052V48.7185V54.2318V58.5763C70.1753 59.2213 70.7784 59.7506 71.5276 59.7506H113.278C114.021 59.7506 114.63 59.2268 114.63 58.5763V54.2318V48.7185V43.2052V37.6919V32.1786V26.6653V22.3208C114.63 21.6758 114.027 21.1465 113.278 21.1465H71.5276ZM108.275 32.1786V37.6919V43.2052V48.7185V53.5592C108.275 53.9341 107.926 54.2318 107.5 54.2318H77.3051C76.8734 54.2318 76.5305 53.9285 76.5305 53.5592V48.7185V43.2052V37.6919V32.1786V27.3379C76.5305 26.963 76.8797 26.6653 77.3051 26.6653H107.5C107.932 26.6653 108.275 26.9685 108.275 27.3379V32.1786Z" fill="#777777"/>
</g>
<path d="M101.926 43.205V37.6917V33.3472C101.926 32.7021 101.322 32.1729 100.573 32.1729H84.2249C83.4821 32.1729 82.8726 32.6966 82.8726 33.3472V37.6917V43.205V47.5494C82.8726 48.1945 83.4757 48.7238 84.2249 48.7238H100.573C101.316 48.7238 101.926 48.2 101.926 47.5494V43.205Z" fill="#777777"/>
<g clip-path="url(#clip3_231_5)">
<path d="M185.807 21.1465C185.065 21.1465 184.455 21.6758 184.455 22.3208V26.6653V32.1786V37.6919V43.2052V48.7185V54.2318V58.5763C184.455 59.2213 185.058 59.7506 185.807 59.7506H227.558C228.301 59.7506 228.91 59.2268 228.91 58.5763V54.2318V48.7185V43.2052V37.6919V32.1786V26.6653V22.3208C228.91 21.6758 228.307 21.1465 227.558 21.1465H185.807ZM222.555 32.1786V37.6919V43.2052V48.7185V53.5592C222.555 53.9341 222.206 54.2318 221.78 54.2318H191.585C191.153 54.2318 190.81 53.9285 190.81 53.5592V48.7185V43.2052V37.6919V32.1786V27.3379C190.81 26.963 191.16 26.6653 191.585 26.6653H221.78C222.212 26.6653 222.555 26.9685 222.555 27.3379V32.1786Z" fill="#777777"/>
</g>
<path d="M216.205 43.205V37.6917V33.3472C216.205 32.7021 215.602 32.1729 214.853 32.1729H198.505C197.762 32.1729 197.152 32.6966 197.152 33.3472V37.6917V43.205V47.5494C197.152 48.1945 197.755 48.7238 198.505 48.7238H214.853C215.596 48.7238 216.205 48.2 216.205 47.5494V43.205Z" fill="#777777"/>
<g clip-path="url(#clip4_231_5)">
<path d="M71.5276 120.386C70.7848 120.386 70.1753 120.915 70.1753 121.56V125.905V131.418V136.931V142.444V147.958V153.471V157.816C70.1753 158.461 70.7784 158.99 71.5276 158.99H113.278C114.021 158.99 114.63 158.466 114.63 157.816V153.471V147.958V142.444V136.931V131.418V125.905V121.56C114.63 120.915 114.027 120.386 113.278 120.386H71.5276ZM108.275 131.418V136.931V142.444V147.958V152.798C108.275 153.173 107.926 153.471 107.5 153.471H77.3051C76.8734 153.471 76.5305 153.168 76.5305 152.798V147.958V142.444V136.931V131.418V126.577C76.5305 126.202 76.8797 125.905 77.3051 125.905H107.5C107.932 125.905 108.275 126.208 108.275 126.577V131.418Z" fill="#777777"/>
</g>
<path d="M101.926 142.444V136.931V132.586C101.926 131.941 101.322 131.412 100.573 131.412H84.2249C83.4821 131.412 82.8726 131.936 82.8726 132.586V136.931V142.444V146.789C82.8726 147.434 83.4757 147.963 84.2249 147.963H100.573C101.316 147.963 101.926 147.439 101.926 146.789V142.444Z" fill="#777777"/>
</g>
<path d="M87.9631 210.815C87.9157 210.295 87.705 209.89 87.331 209.601C86.9616 209.307 86.4337 209.161 85.7472 209.161C85.2926 209.161 84.9138 209.22 84.6108 209.338C84.3078 209.456 84.0805 209.62 83.929 209.828C83.7775 210.032 83.6993 210.266 83.6946 210.531C83.6851 210.749 83.7277 210.941 83.8224 211.107C83.9219 211.272 84.0639 211.419 84.2486 211.547C84.438 211.67 84.6652 211.779 84.9304 211.874C85.1955 211.968 85.4938 212.051 85.8253 212.122L87.0753 212.406C87.795 212.562 88.4295 212.771 88.9787 213.031C89.5327 213.292 89.9967 213.602 90.3707 213.962C90.7495 214.321 91.036 214.736 91.2301 215.205C91.4242 215.673 91.5237 216.199 91.5284 216.781C91.5237 217.7 91.2917 218.488 90.8324 219.146C90.3731 219.804 89.7126 220.309 88.8509 220.659C87.9938 221.009 86.9593 221.185 85.7472 221.185C84.5303 221.185 83.4697 221.002 82.5653 220.638C81.661 220.273 80.9579 219.719 80.456 218.976C79.9541 218.232 79.696 217.293 79.6818 216.156H83.0483C83.0767 216.625 83.2022 217.016 83.4247 217.328C83.6473 217.641 83.9527 217.877 84.3409 218.038C84.7339 218.199 85.1884 218.28 85.7045 218.28C86.178 218.28 86.5805 218.216 86.9119 218.088C87.2481 217.96 87.5062 217.783 87.6861 217.555C87.866 217.328 87.9583 217.068 87.9631 216.774C87.9583 216.5 87.8731 216.265 87.7074 216.071C87.5417 215.872 87.286 215.702 86.9403 215.56C86.5994 215.413 86.1638 215.278 85.6335 215.155L84.1136 214.8C82.8542 214.511 81.8622 214.045 81.1378 213.401C80.4134 212.752 80.0535 211.876 80.0582 210.773C80.0535 209.873 80.295 209.085 80.7827 208.408C81.2704 207.731 81.9451 207.203 82.8068 206.824C83.6686 206.445 84.651 206.256 85.7543 206.256C86.8812 206.256 87.8589 206.447 88.6875 206.831C89.5208 207.21 90.1671 207.742 90.6264 208.429C91.0857 209.116 91.3201 209.911 91.3295 210.815H87.9631ZM106.507 211.724H102.956C102.909 211.36 102.812 211.031 102.665 210.737C102.518 210.444 102.324 210.193 102.082 209.984C101.841 209.776 101.554 209.617 101.223 209.509C100.896 209.395 100.534 209.338 100.136 209.338C99.4309 209.338 98.8224 209.511 98.3111 209.857C97.8045 210.202 97.4138 210.702 97.1392 211.355C96.8693 212.009 96.7344 212.799 96.7344 213.727C96.7344 214.693 96.8717 215.503 97.1463 216.156C97.4257 216.805 97.8163 217.295 98.3182 217.626C98.8248 217.953 99.4238 218.116 100.115 218.116C100.503 218.116 100.856 218.067 101.173 217.967C101.495 217.868 101.777 217.723 102.018 217.534C102.265 217.34 102.466 217.106 102.622 216.831C102.783 216.552 102.894 216.237 102.956 215.886L106.507 215.908C106.446 216.552 106.259 217.186 105.946 217.811C105.638 218.436 105.214 219.007 104.675 219.523C104.135 220.034 103.477 220.441 102.7 220.744C101.929 221.047 101.043 221.199 100.044 221.199C98.7277 221.199 97.5488 220.91 96.5071 220.332C95.4702 219.75 94.651 218.902 94.0497 217.79C93.4484 216.677 93.1477 215.323 93.1477 213.727C93.1477 212.127 93.4531 210.77 94.0639 209.658C94.6747 208.545 95.5009 207.7 96.5426 207.122C97.5843 206.545 98.7514 206.256 100.044 206.256C100.925 206.256 101.739 206.379 102.487 206.625C103.235 206.866 103.893 207.222 104.462 207.69C105.03 208.154 105.491 208.725 105.847 209.402C106.202 210.079 106.422 210.853 106.507 211.724ZM111.294 221H107.516L112.423 206.455H117.104L122.011 221H118.233L114.817 210.119H114.703L111.294 221ZM110.79 215.276H118.688V217.946H110.79V215.276ZM135.957 206.455V221H132.974L127.185 212.605H127.093V221H123.577V206.455H126.603L132.327 214.835H132.448V206.455H135.957ZM138.167 221V206.455H148.309V209.31H141.683V212.293H147.791V215.155H141.683V218.145H148.309V221H138.167ZM154.027 206.455V221H150.511V206.455H154.027ZM156.234 221V206.455H166.376V209.31H159.749V212.293H165.857V215.155H159.749V218.145H166.376V221H156.234ZM176.021 221H172.242L177.15 206.455H181.83L186.738 221H182.96L179.543 210.119H179.43L176.021 221ZM175.516 215.276H183.414V217.946H175.516V215.276ZM193.181 215.773H196.022L197.23 217.314L198.814 219.132L201.25 222.136H198.068L196.363 220.098L195.355 218.649L193.181 215.773ZM201.349 213.727C201.349 215.328 201.041 216.684 200.426 217.797C199.81 218.91 198.977 219.755 197.926 220.332C196.879 220.91 195.705 221.199 194.403 221.199C193.096 221.199 191.92 220.908 190.873 220.325C189.827 219.743 188.996 218.898 188.38 217.79C187.77 216.677 187.464 215.323 187.464 213.727C187.464 212.127 187.77 210.77 188.38 209.658C188.996 208.545 189.827 207.7 190.873 207.122C191.92 206.545 193.096 206.256 194.403 206.256C195.705 206.256 196.879 206.545 197.926 207.122C198.977 207.7 199.81 208.545 200.426 209.658C201.041 210.77 201.349 212.127 201.349 213.727ZM197.755 213.727C197.755 212.78 197.62 211.98 197.35 211.327C197.085 210.673 196.702 210.179 196.2 209.842C195.703 209.506 195.104 209.338 194.403 209.338C193.707 209.338 193.108 209.506 192.606 209.842C192.104 210.179 191.718 210.673 191.449 211.327C191.183 211.98 191.051 212.78 191.051 213.727C191.051 214.674 191.183 215.474 191.449 216.128C191.718 216.781 192.104 217.276 192.606 217.612C193.108 217.948 193.707 218.116 194.403 218.116C195.104 218.116 195.703 217.948 196.2 217.612C196.702 217.276 197.085 216.781 197.35 216.128C197.62 215.474 197.755 214.674 197.755 213.727ZM212.221 206.455H215.729V215.837C215.729 216.921 215.471 217.866 214.955 218.67C214.439 219.471 213.719 220.091 212.796 220.531C211.873 220.967 210.8 221.185 209.579 221.185C208.343 221.185 207.263 220.967 206.34 220.531C205.417 220.091 204.7 219.471 204.188 218.67C203.677 217.866 203.421 216.921 203.421 215.837V206.455H206.937V215.531C206.937 216.033 207.046 216.481 207.263 216.874C207.486 217.267 207.796 217.574 208.194 217.797C208.592 218.019 209.053 218.131 209.579 218.131C210.104 218.131 210.564 218.019 210.957 217.797C211.354 217.574 211.665 217.267 211.887 216.874C212.11 216.481 212.221 216.033 212.221 215.531V206.455ZM221.449 206.455V221H217.933V206.455H221.449Z" fill="#777777"/>
</g>
<defs>
<clipPath id="clip0_231_5">
<rect width="254" height="254" fill="white"/>
</clipPath>
<clipPath id="clip1_231_5">
<rect width="198.403" height="172.291" fill="white" transform="translate(50.3408 3.92188)"/>
</clipPath>
<clipPath id="clip2_231_5">
<rect width="44.4422" height="38.5931" fill="white" transform="translate(70.1812 21.1514)"/>
</clipPath>
<clipPath id="clip3_231_5">
<rect width="44.4422" height="38.5931" fill="white" transform="translate(184.461 21.1514)"/>
</clipPath>
<clipPath id="clip4_231_5">
<rect width="44.4422" height="38.5931" fill="white" transform="translate(70.1812 120.391)"/>
</clipPath>
</defs>
</svg>
